<svg width="101" height="27" viewBox="0 0 101 27" fill="none" xmlns="http://www.w3.org/2000/svg">
<path d="M0.5625 26.334V0.506432H7.57429V20.6843H18.0163V26.334H0.5625Z" fill="black"/>
<path d="M44.8654 13.4202C44.8654 16.2956 44.3063 18.7211 43.1881 20.6969C42.07 22.6642 40.5608 24.1565 38.6607 25.1738C36.7607 26.1827 34.642 26.6872 32.3047 26.6872C29.9507 26.6872 27.8236 26.1785 25.9235 25.1612C24.0318 24.1355 22.5269 22.639 21.4087 20.6716C20.2989 18.6959 19.744 16.2788 19.744 13.4202C19.744 10.5449 20.2989 8.12356 21.4087 6.15622C22.5269 4.18048 24.0318 2.68816 25.9235 1.67927C27.8236 0.661969 29.9507 0.15332 32.3047 0.15332C34.642 0.15332 36.7607 0.661969 38.6607 1.67927C40.5608 2.68816 42.07 4.18048 43.1881 6.15622C44.3063 8.12356 44.8654 10.5449 44.8654 13.4202ZM37.6519 13.4202C37.6519 11.8733 37.4459 10.5701 37.0339 9.51078C36.6304 8.44304 36.0292 7.63593 35.2305 7.08945C34.4402 6.53456 33.465 6.25711 32.3047 6.25711C31.1445 6.25711 30.165 6.53456 29.3663 7.08945C28.576 7.63593 27.9749 8.44304 27.5629 9.51078C27.1594 10.5701 26.9576 11.8733 26.9576 13.4202C26.9576 14.9672 27.1594 16.2746 27.5629 17.3423C27.9749 18.4016 28.576 19.2087 29.3663 19.7636C30.165 20.3101 31.1445 20.5834 32.3047 20.5834C33.465 20.5834 34.4402 20.3101 35.2305 19.7636C36.0292 19.2087 36.6304 18.4016 37.0339 17.3423C37.4459 16.2746 37.6519 14.9672 37.6519 13.4202Z" fill="black"/>
<path d="M64.8824 9.03156C64.7732 8.58597 64.6008 8.19502 64.3654 7.85872C64.13 7.51402 63.8357 7.22396 63.4826 6.98856C63.1379 6.74474 62.7343 6.56398 62.2719 6.44628C61.8179 6.32017 61.3177 6.25711 60.7712 6.25711C59.5942 6.25711 58.5895 6.53876 57.7572 7.10206C56.9332 7.66535 56.3027 8.47667 55.8655 9.53601C55.4367 10.5953 55.2223 11.8733 55.2223 13.3698C55.2223 14.8831 55.4283 16.1779 55.8403 17.254C56.2522 18.3302 56.866 19.1541 57.6815 19.7258C58.497 20.2975 59.5101 20.5834 60.7208 20.5834C61.7885 20.5834 62.6755 20.4278 63.3817 20.1167C64.0964 19.8057 64.6302 19.3643 64.9833 18.7926C65.3364 18.2209 65.513 17.5483 65.513 16.7748L66.7237 16.9009H60.8217V11.9069H72.2726V15.4885C72.2726 17.8425 71.7723 19.8561 70.7718 21.5292C69.7798 23.1939 68.4094 24.4718 66.6606 25.363C64.9203 26.2458 62.9235 26.6872 60.6703 26.6872C58.1565 26.6872 55.9496 26.1533 54.0495 25.0855C52.1494 24.0178 50.6655 22.496 49.5977 20.5203C48.5384 18.5446 48.0087 16.1947 48.0087 13.4707C48.0087 11.3352 48.3324 9.44352 48.9798 7.79567C49.6356 6.14781 50.5436 4.75639 51.7038 3.62138C52.864 2.47797 54.205 1.61621 55.7268 1.0361C57.2485 0.44758 58.8795 0.15332 60.6199 0.15332C62.15 0.15332 63.5709 0.371914 64.8824 0.8091C66.2024 1.23788 67.3668 1.85162 68.3757 2.65033C69.393 3.44062 70.2128 4.37805 70.8349 5.46261C71.4571 6.54717 71.8354 7.73682 71.9699 9.03156H64.8824Z" fill="black"/>
<path d="M100.563 13.4202C100.563 16.2956 100.003 18.7211 98.8852 20.6969C97.767 22.6642 96.2579 24.1565 94.3578 25.1738C92.4578 26.1827 90.3391 26.6872 88.0018 26.6872C85.6477 26.6872 83.5207 26.1785 81.6206 25.1612C79.7289 24.1355 78.224 22.639 77.1058 20.6716C75.996 18.6959 75.4411 16.2788 75.4411 13.4202C75.4411 10.5449 75.996 8.12356 77.1058 6.15622C78.224 4.18048 79.7289 2.68816 81.6206 1.67927C83.5207 0.661969 85.6477 0.15332 88.0018 0.15332C90.3391 0.15332 92.4578 0.661969 94.3578 1.67927C96.2579 2.68816 97.767 4.18048 98.8852 6.15622C100.003 8.12356 100.563 10.5449 100.563 13.4202ZM93.3489 13.4202C93.3489 11.8733 93.143 10.5701 92.731 9.51078C92.3274 8.44304 91.7263 7.63593 90.9276 7.08945C90.1373 6.53456 89.162 6.25711 88.0018 6.25711C86.8416 6.25711 85.8621 6.53456 85.0634 7.08945C84.2731 7.63593 83.672 8.44304 83.26 9.51078C82.8565 10.5701 82.6547 11.8733 82.6547 13.4202C82.6547 14.9672 82.8565 16.2746 83.26 17.3423C83.672 18.4016 84.2731 19.2087 85.0634 19.7636C85.8621 20.3101 86.8416 20.5834 88.0018 20.5834C89.162 20.5834 90.1373 20.3101 90.9276 19.7636C91.7263 19.2087 92.3274 18.4016 92.731 17.3423C93.143 16.2746 93.3489 14.9672 93.3489 13.4202Z" fill="black"/>
</svg>
